<svg width="36" height="36" viewBox="0 0 36 36" fill="none" xmlns="http://www.w3.org/2000/svg">
<rect width="36" height="36" fill="white"/>
<path fill-rule="evenodd" clip-rule="evenodd" d="M15.4873 5.3964C17.0217 3.86201 19.1028 3 21.2727 3H25.3636C26.1168 3 26.7273 3.61052 26.7273 4.36364V9.81818C26.7273 10.5713 26.1168 11.1818 25.3636 11.1818H21.2727V13.9091H25.3636C25.7835 13.9091 26.18 14.1026 26.4385 14.4335C26.6969 14.7645 26.7884 15.1961 26.6866 15.6035L25.3229 21.058C25.1712 21.665 24.6257 22.0909 24 22.0909H21.2727V31.6364C21.2727 32.3895 20.6622 33 19.9091 33H14.4545C13.7014 33 13.0909 32.3895 13.0909 31.6364V22.0909H10.3636C9.61052 22.0909 9 21.4804 9 20.7273V15.2727C9 14.5196 9.61052 13.9091 10.3636 13.9091H13.0909V11.1818C13.0909 9.01187 13.9529 6.93079 15.4873 5.3964ZM21.2727 5.72727C19.8261 5.72727 18.4387 6.30195 17.4158 7.32487C16.3929 8.3478 15.8182 9.73518 15.8182 11.1818V15.2727C15.8182 16.0258 15.2077 16.6364 14.4545 16.6364H11.7273V19.3636H14.4545C15.2077 19.3636 15.8182 19.9742 15.8182 20.7273V30.2727H18.5455V20.7273C18.5455 19.9742 19.156 19.3636 19.9091 19.3636H22.9353L23.6171 16.6364H19.9091C19.156 16.6364 18.5455 16.0258 18.5455 15.2727V11.1818C18.5455 10.4585 18.8328 9.76481 19.3443 9.25335C19.8557 8.74188 20.5494 8.45455 21.2727 8.45455H24V5.72727H21.2727Z" fill="#F12304"/>
</svg>
