<svg width="36" height="36" viewBox="0 0 36 36" fill="none" xmlns="http://www.w3.org/2000/svg">
<rect width="36" height="36" fill="white"/>
<path fill-rule="evenodd" clip-rule="evenodd" d="M11.1818 5.72727C8.16936 5.72727 5.72727 8.16936 5.72727 11.1818V24.8182C5.72727 27.8306 8.16936 30.2727 11.1818 30.2727H24.8182C27.8306 30.2727 30.2727 27.8306 30.2727 24.8182V11.1818C30.2727 8.16936 27.8306 5.72727 24.8182 5.72727H11.1818ZM3 11.1818C3 6.66312 6.66312 3 11.1818 3H24.8182C29.3369 3 33 6.66312 33 11.1818V24.8182C33 29.3369 29.3369 33 24.8182 33H11.1818C6.66312 33 3 29.3369 3 24.8182V11.1818Z" fill="#F12304"/>
<path fill-rule="evenodd" clip-rule="evenodd" d="M18.659 13.8941C17.8078 13.7679 16.9385 13.9133 16.1748 14.3096C15.411 14.7059 14.7916 15.3329 14.4048 16.1015C14.0179 16.8701 13.8833 17.7411 14.02 18.5907C14.1567 19.4402 14.5578 20.225 15.1662 20.8335C15.7746 21.4419 16.5594 21.843 17.409 21.9797C18.2585 22.1164 19.1295 21.9817 19.8981 21.5949C20.6667 21.208 21.2938 20.5887 21.6901 19.8249C22.0864 19.0611 22.2318 18.1918 22.1056 17.3407C21.9768 16.4725 21.5723 15.6687 20.9516 15.048C20.331 14.4274 19.5272 14.0228 18.659 13.8941ZM14.9187 11.8888C16.1916 11.2283 17.6404 10.986 19.059 11.1963C20.5061 11.4109 21.8457 12.0852 22.8801 13.1196C23.9145 14.154 24.5888 15.4936 24.8033 16.9406C25.0137 18.3592 24.7714 19.808 24.1109 21.081C23.4504 22.354 22.4053 23.3862 21.1243 24.031C19.8433 24.6757 18.3916 24.9002 16.9757 24.6723C15.5598 24.4445 14.2518 23.776 13.2377 22.7619C12.2237 21.7479 11.5552 20.4399 11.3273 19.024C11.0995 17.6081 11.3239 16.1564 11.9687 14.8754C12.6134 13.5944 13.6457 12.5493 14.9187 11.8888Z" fill="#F12304"/>
<path fill-rule="evenodd" clip-rule="evenodd" d="M24.1362 10.5004C24.1362 9.74724 24.7468 9.13672 25.4999 9.13672H25.5135C26.2666 9.13672 26.8771 9.74724 26.8771 10.5004C26.8771 11.2535 26.2666 11.864 25.5135 11.864H25.4999C24.7468 11.864 24.1362 11.2535 24.1362 10.5004Z" fill="#F12304"/>
</svg>
