<svg width="36" height="36" viewBox="0 0 36 36" fill="none" xmlns="http://www.w3.org/2000/svg">
<g clip-path="url(#clip0_169_14)">
<rect width="36" height="36" fill="white"/>
<path fill-rule="evenodd" clip-rule="evenodd" d="M21.8499 3.5419C23.4275 2.93974 25.152 2.83664 26.7902 3.24653C28.0929 3.57248 29.291 4.21033 30.2843 5.09865C31.506 4.64961 32.6648 4.04188 33.7305 3.29016C34.2428 2.92874 34.9257 2.92305 35.444 3.27589C35.9623 3.62873 36.2074 4.26608 36.059 4.87529C35.5438 6.99103 34.511 8.94115 33.0585 10.5528C33.0809 10.7956 33.0925 11.0394 33.0933 11.2834L33.0933 11.2884C33.0933 20.4641 28.6756 27.1957 22.3303 30.573C16.0216 33.9309 7.95886 33.8937 0.773868 29.902C0.164938 29.5637 -0.132067 28.8516 0.0560355 28.1809C0.244138 27.5102 0.868133 27.0564 1.56417 27.084C4.10153 27.185 6.61332 26.6804 8.8973 25.6282C6.63621 24.233 5.00838 22.5765 3.87665 20.7896C2.36695 18.4059 1.79704 15.8807 1.69397 13.6131C1.59119 11.352 1.95036 9.3162 2.32792 7.8563C2.51761 7.12285 2.71442 6.52526 2.86614 6.10562C2.94208 5.89556 3.00698 5.72938 3.05441 5.61231C3.07813 5.55375 3.09751 5.50741 3.11175 5.47393C3.11887 5.45719 3.1247 5.44367 3.12915 5.43343L3.13362 5.42322C3.14421 5.3989 3.15548 5.37478 3.16743 5.35088L4.51285 6.02359L5.74385 5.15909C7.12104 7.12013 8.96184 8.71014 11.1023 9.7875C12.8049 10.6445 14.655 11.1559 16.5463 11.2981C16.5352 9.62887 17.0311 7.99513 17.9691 6.61334C18.9176 5.2162 20.2722 4.14405 21.8499 3.5419ZM5.12154 9.09765C4.84522 10.3031 4.62457 11.8318 4.69933 13.4765C4.78429 15.3455 5.24854 17.333 6.41826 19.1799C7.58192 21.0173 9.50095 22.8067 12.6449 24.204C13.1441 24.4259 13.4837 24.9008 13.5323 25.4448C13.5809 25.9888 13.3308 26.5165 12.8788 26.8232C11.2077 27.9576 9.37785 28.8109 7.46131 29.3628C12.23 30.5777 17.0085 29.9975 20.9167 27.9173C26.2287 25.09 30.084 19.4126 30.0848 11.2911C30.0836 10.966 30.0523 10.6417 29.9912 10.3223C29.897 9.82914 30.055 9.32144 30.4125 8.96887C30.7476 8.63841 31.0579 8.2862 31.3419 7.91517C31.0012 8.04085 30.6564 8.15627 30.3079 8.26119C29.7414 8.43178 29.1275 8.25442 28.7392 7.80797C28.0355 6.99882 27.1002 6.42531 26.0599 6.16502C25.0197 5.90473 23.9245 5.9702 22.9227 6.35259C21.9208 6.73498 21.0606 7.41583 20.4583 8.30307C19.856 9.1903 19.5407 10.2411 19.555 11.3134C19.5551 11.3201 19.5552 11.3268 19.5552 11.3335V12.8378C19.5552 13.6533 18.9052 14.3204 18.0899 14.3415C15.1985 14.4165 12.3333 13.7752 9.74971 12.4748C8.02651 11.6074 6.46421 10.4648 5.12154 9.09765ZM5.88874 6.63158C5.88876 6.63153 5.88876 6.63153 5.88874 6.63157L5.88874 6.63158Z" fill="#F12304"/>
</g>
<defs>
<clipPath id="clip0_169_14">
<rect width="36" height="36" fill="white"/>
</clipPath>
</defs>
</svg>
