<svg width="36" height="36" viewBox="0 0 36 36" fill="none" xmlns="http://www.w3.org/2000/svg">
<rect width="36" height="36" fill="white"/>
<path fill-rule="evenodd" clip-rule="evenodd" d="M17.6252 6C17.6253 6 17.6254 6 17.6254 7.38538C17.6254 6 17.6254 6 17.6256 6L17.6541 6.00002C17.6727 6.00004 17.7001 6.00007 17.7358 6.00014C17.8072 6.00029 17.9118 6.00058 18.0455 6.00115C18.313 6.00229 18.6972 6.00458 19.1654 6.00916C20.1014 6.0183 21.3757 6.03659 22.7265 6.07324C24.0752 6.10984 25.5103 6.16499 26.7648 6.24853C27.9835 6.32969 29.1399 6.44355 29.8683 6.6214C29.8845 6.62537 29.9007 6.62963 29.9168 6.63418C30.8036 6.88507 31.6084 7.36552 32.2501 8.02702C32.8917 8.68851 33.3474 9.50763 33.5712 10.4016C33.5787 10.4315 33.5852 10.4617 33.5907 10.4921C34.0449 13.0104 34.2656 15.5652 34.25 18.1241C34.2586 20.6446 34.0379 23.1606 33.5907 25.6412C33.5852 25.6716 33.5787 25.7018 33.5712 25.7317C33.3474 26.6257 32.8917 27.4448 32.2501 28.1063C31.6084 28.7678 30.8036 29.2483 29.9168 29.4992C29.9129 29.5003 29.909 29.5013 29.9051 29.5024C29.9026 29.5031 29.9001 29.5038 29.8976 29.5044C29.1583 29.7022 27.9917 29.8274 26.7735 29.9162C25.5166 30.0079 24.0796 30.0684 22.7301 30.1085C21.3783 30.1486 20.1032 30.1687 19.1667 30.1787C18.6982 30.1837 18.3137 30.1862 18.0461 30.1875C17.9122 30.1881 17.8075 30.1884 17.736 30.1886C17.7003 30.1887 17.6729 30.1887 17.6543 30.1887L17.6256 30.1887C17.6254 30.1887 17.6254 30.1887 17.6254 28.8034C17.6254 30.1887 17.6253 30.1887 17.6252 30.1887L17.5965 30.1887C17.5778 30.1887 17.5504 30.1887 17.5147 30.1886C17.4432 30.1884 17.3385 30.1881 17.2047 30.1875C16.937 30.1862 16.5526 30.1837 16.084 30.1787C15.1475 30.1687 13.8724 30.1486 12.5206 30.1085C11.1711 30.0684 9.73409 30.0079 8.47718 29.9162C7.25901 29.8274 6.09246 29.7022 5.35316 29.5044L5.34546 29.5024C4.47673 29.2647 3.68399 28.8069 3.04383 28.1734C2.40367 27.5398 1.93774 26.7518 1.69105 25.8856C1.67852 25.8416 1.66819 25.7971 1.66007 25.7521C1.20589 23.2342 0.985185 20.6797 1.00077 18.1212C0.988698 15.5818 1.20938 13.0467 1.66006 10.5476C1.66554 10.5172 1.67203 10.487 1.67953 10.457C1.90329 9.56304 2.35901 8.74393 3.00067 8.08243C3.64232 7.42094 4.44717 6.94048 5.33394 6.6896C5.34033 6.68779 5.34674 6.68603 5.35316 6.68431C6.09246 6.48659 7.25901 6.36137 8.47718 6.27252C9.73409 6.18084 11.1711 6.12037 12.5206 6.08027C13.8724 6.0401 15.1475 6.02005 16.084 6.01004C16.5526 6.00502 16.937 6.00252 17.2047 6.00126C17.3385 6.00063 17.4432 6.00032 17.5147 6.00016C17.5504 6.00008 17.5778 6.00004 17.5965 6.00002L17.6252 6ZM6.0787 9.35843C5.66489 9.47731 5.28935 9.70247 4.9895 10.0116C4.697 10.3131 4.48655 10.6842 4.37781 11.0895C3.96283 13.4081 3.7599 15.7598 3.77154 18.1152C3.77156 18.1204 3.77156 18.1256 3.77153 18.1308C3.75668 20.4959 3.95817 22.8574 4.37347 25.1858C4.49348 25.5704 4.70604 25.9201 4.99287 26.204C5.29338 26.5014 5.66528 26.7165 6.07285 26.8288C6.52632 26.9493 7.44308 27.0627 8.67874 27.1528C9.87915 27.2404 11.2718 27.2994 12.6029 27.3389C13.9319 27.3784 15.1886 27.3982 16.1137 27.4081C16.5759 27.4131 16.9548 27.4155 17.2177 27.4168C17.3491 27.4174 17.4515 27.4177 17.5208 27.4178C17.5413 27.4179 17.5589 27.4179 17.5735 27.4179C17.5836 27.418 17.5923 27.418 17.5994 27.418L17.6253 27.418L17.6513 27.418C17.6689 27.418 17.6953 27.4179 17.7299 27.4178C17.7992 27.4177 17.9016 27.4174 18.0331 27.4168C18.296 27.4155 18.6748 27.4131 19.1371 27.4081C20.0622 27.3982 21.3188 27.3784 22.6478 27.3389C23.979 27.2994 25.3716 27.2404 26.572 27.1528C27.8024 27.0631 28.7166 26.9503 29.172 26.8303C29.5858 26.7114 29.9614 26.4863 30.2612 26.1772C30.5537 25.8756 30.7642 25.5045 30.8729 25.0992C31.2847 22.7982 31.4876 20.4647 31.4792 18.1271C31.4792 18.1225 31.4792 18.1179 31.4792 18.1134C31.4941 15.74 31.2912 13.3703 30.8729 11.0341C30.7642 10.6288 30.5537 10.2577 30.2612 9.95618C29.9648 9.65059 29.5944 9.42705 29.1862 9.30714C28.7153 9.19635 27.7977 9.09422 26.5807 9.01317C25.3779 8.93307 23.9833 8.87912 22.6514 8.84298C21.3214 8.8069 20.064 8.78883 19.1383 8.77979C18.6758 8.77527 18.2967 8.77301 18.0336 8.77189C17.9021 8.77132 17.7996 8.77104 17.7302 8.7709C17.6955 8.77083 17.6691 8.7708 17.6514 8.77078L17.6254 8.77076L17.5994 8.77078C17.5818 8.7708 17.5555 8.77084 17.5208 8.77091C17.4515 8.77107 17.3491 8.77137 17.2177 8.77199C16.9548 8.77322 16.5759 8.77569 16.1137 8.78064C15.1886 8.79054 13.9319 8.81032 12.6029 8.84981C11.2718 8.88937 9.87915 8.94839 8.67874 9.03594C7.44837 9.12568 6.53417 9.23847 6.0787 9.35843Z" fill="#F12304"/>
<path fill-rule="evenodd" clip-rule="evenodd" d="M13.8116 12.3939C14.238 12.1459 14.7642 12.1433 15.193 12.3872L23.159 16.9174C23.592 17.1636 23.8595 17.6235 23.8595 18.1216C23.8595 18.6198 23.592 19.0796 23.159 19.3259L15.193 23.8561C14.7642 24.1 14.238 24.0974 13.8116 23.8493C13.3852 23.6013 13.1228 23.1452 13.1228 22.6518V13.5914C13.1228 13.0981 13.3852 12.642 13.8116 12.3939ZM15.8936 15.973V20.2702L19.6717 18.1216L15.8936 15.973Z" fill="#F12304"/>
</svg>
